<svg xmlns="http://www.w3.org/2000/svg" width="32.733" height="32.733"><path d="M32.094 31.455h-2.398V6.653a.64.64 0 0 0-.64-.64h-3.548V3.709a.64.64 0 0 0-.64-.64h-3.515V.64a.64.64 0 0 0-.64-.639H12.02a.64.64 0 0 0-.64.64v2.429H7.866a.64.64 0 0 0-.64.64v2.305H3.677a.64.64 0 0 0-.64.639v24.802H.64a.64.64 0 1 0 0 1.278h31.455a.64.64 0 1 0 0-1.278ZM12.659 1.279h7.416v1.79h-7.416v-1.79Zm6.393 30.176h-4.424l4.424-4.424v4.424Zm0-6.228a.64.64 0 0 0-.042.037l-5.329 5.329v-2.71l4.101-4.1h1.27v1.444Zm-5.37.848v-2.292h2.292l-2.293 2.292Zm14.735 5.38H20.33v-7.672h.224a.64.64 0 1 0 0-1.279H12.18a.64.64 0 1 0 0 1.279h.224v7.672H4.316V7.292h7.097a.64.64 0 1 0 0-1.278h-2.91V4.347H24.23v1.667h-7.765a.64.64 0 1 0 0 1.278h11.953v24.163Z" fill-rule="evenodd" data-name="Path 14"/></svg>